<?xml version="1.0" encoding="UTF-8"?>
<svg xmlns="http://www.w3.org/2000/svg" viewBox="0 0 525 112">
  <defs>
    <style>.c2{fill:#4584b6;}.c3{fill:#ffde57;}.c4{fill:#45733e;}.c5{fill:#a2c1da;}.c6{fill:#2c649c;}.c7{fill:#a2a84a;}.c8{fill:#2c5735;}.c9{fill:#646464;}</style>
  </defs>
  <g transform="matrix(0.28353441,0,0,0.28353441,0.19990817,0.54695506)">
    <path d="M 100,0 C 97.470915,0.00387848 95.249839,1.6788189 94.550781,4.109375 63.117859,113.79922 31.677558,223.48694 0.22070312,333.16992 c -1.03686868,3.62199 1.68173588,7.22926 5.44921878,7.23047 H 181.33008 l 14.48047,-50.48047 h -79.02149 c -3.76748,-10e-4 -6.48609,-3.60848 -5.44922,-7.23047 21.80447,-76.03476 43.61868,-152.06672 65.42969,-228.099606 0.69594,-2.419928 2.90197,-4.092198 5.41992,-4.109375 H 340.91016 L 353.31055,7.2304688 C 354.34712,3.6083234 351.62693,7.8018866e-4 347.85938,0 Z" class="c2" />
    <path d="m 376.91992,101 c -17.68631,61.59881 -35.34406,123.20582 -53.00976,184.81055 -0.69614,2.43256 -2.91901,4.10885 -5.44922,4.10937 H 272.25 L 259,336.28906 c -0.68926,2.43302 -2.91069,4.11309 -5.43945,4.11133 h -72.23047 l -12.40039,43.25 c -1.03657,3.62215 1.68362,7.22969 5.45117,7.23047 h 185.80859 c 2.52742,7.6e-4 4.75134,-1.67296 5.45117,-4.10156 26.62601,-92.84969 53.25723,-185.6979 79.87891,-278.54883 1.03687,-3.62199 -1.68174,-7.22926 -5.44922,-7.23047 z" class="c3" />
    <path d="m 259,336.29 13.3,-46.37 h -76.49 l -14.48,50.48 h 72.18 a 5.65,5.65 0 0 0 5.49,-4.11 z" class="c4" />
    <path d="m 376.92,101 12.4,-43.26 a 5.67,5.67 0 0 0 -5.45,-7.23 h -43 L 326.43,101 Z" class="c5" />
    <path d="m 182.18945,50.509766 c -2.52908,0.0039 -4.75016,1.678819 -5.44922,4.109375 -21.79256,76.023739 -43.57956,152.049069 -65.38085,228.070309 -1.03709,3.62277 1.68288,7.23056 5.45117,7.23047 h 79 c 17.65969,-61.62134 35.34855,-123.23431 53.02929,-184.84961 0.7077,-2.40606 2.91196,-4.06165 5.41993,-4.07031 h 72.16992 l 14.48047,-50.490234 z" class="c6" />
    <path d="M 326.42969,100.9707 311.96094,151.44922 272.25,289.91992 h 46.21094 c 2.53021,-5.2e-4 4.75308,-1.67681 5.44922,-4.10937 l 38.52929,-134.36133 14.48047,-50.47852 z" class="c7" />
    <path d="m 254.25977,101 c -2.52742,-7.6e-4 -4.74939,1.67101 -5.44922,4.09961 -17.67016,61.60577 -35.33839,123.21209 -53,184.82031 H 272.25 C 290.30391,226.9449 308.36827,163.97287 326.42969,101 Z" class="c8" />
  </g>
  <g transform="translate(-328.34311,-141.56858)">
    <path d="m 482.11271,226.33834 h -4.85 q -6.85,0 -9.41,-3.85 -2.56,-3.85 -0.54,-10.9 l 5.46,-19 a 20.9,20.9 0 0 1 6.8,-10.95 18,18 0 0 1 11.61,-3.81 h 4.85 q 7.32,0 8.07,5.05 h 0.38 l 6.25,-21.8 a 2,2 0 0 1 2.08,-1.62 h 6.1 c 1.07,0 1.46,0.54 1.15,1.62 l -18.25,63.67 a 2,2 0 0 1 -2.08,1.59 h -6.1 c -1.08,0 -1.46,-0.54 -1.15,-1.61 l 1,-3.43 h -0.38 q -3.66,5.04 -10.99,5.04 z m 14.54,-16.18 4.64,-16.18 q 2.33,-8.1 -5.48,-8.09 h -5.05 q -6.84,0 -8.87,7 l -5.24,18.28 q -2,7 4.83,7 h 5 q 7.85,0.1 10.17,-7.99 z" class="c9"/>
    <path d="m 531.30271,226.33834 h -3.71 q -7.05,0 -9.78,-3.9 c -1.83,-2.6 -2.07,-6.22 -0.75,-10.85 l 5.46,-19 a 20.5,20.5 0 0 1 7,-10.9 19,19 0 0 1 12,-3.86 h 21.31 c 1.15,0 1.56,0.54 1.25,1.62 l -13,45.32 a 2.06,2.06 0 0 1 -2.18,1.61 h -6 c -1.08,0 -1.46,-0.54 -1.15,-1.61 l 1,-3.43 h -0.38 q -3.74,5 -11.07,5 z m 14.64,-16.18 6.69,-23.32 c 0.18,-0.64 -0.08,-1 -0.78,-1 h -11.33 q -6.85,0 -8.87,7 l -5.24,18.28 q -2,7 4.83,7 h 4.57 q 7.8,0.15 10.13,-7.94 z" class="c9"/>
    <path d="m 577.81271,185.90834 h -4.57 c -0.63,0 -1,-0.11 -1.19,-0.34 -0.19,-0.23 -0.15,-0.62 0,-1.19 l 1.42,-4.95 a 2,2 0 0 1 2.08,-1.62 h 4.57 a 1.18,1.18 0 0 0 1.23,-0.95 l 2.45,-8.57 a 2.07,2.07 0 0 1 2.18,-1.62 h 6 c 1.08,0 1.46,0.55 1.15,1.62 l -2.45,8.57 c -0.19,0.64 0.07,0.95 0.77,0.95 h 8.85 c 1.15,0 1.56,0.54 1.25,1.62 l -1.41,4.91 a 2,2 0 0 1 -2.15,1.53 h -8.85 a 1.22,1.22 0 0 0 -1.32,1 l -7,24.46 q -2,7 5.15,7 h 3.71 c 1.15,0 1.56,0.54 1.25,1.62 l -1.42,4.95 a 2,2 0 0 1 -2.15,1.52 h -5.14 q -7,0 -9.95,-3.8 -2.95,-3.8 -0.91,-10.76 l 7.15,-24.94 c 0.16,-0.7 -0.07,-1.01 -0.7,-1.01 z" class="c9"/>
    <path d="m 616.88271,226.33834 h -3.71 q -7,0 -9.78,-3.9 -2.78,-3.9 -0.74,-10.85 l 5.46,-19 a 20.38,20.38 0 0 1 7,-10.9 19,19 0 0 1 12,-3.86 h 21.33 c 1.14,0 1.55,0.54 1.25,1.62 l -13,45.32 a 2.06,2.06 0 0 1 -2.18,1.61 h -6 c -1.08,0 -1.47,-0.54 -1.16,-1.61 l 1,-3.43 h -0.39 q -3.74,5 -11.08,5 z m 14.64,-16.18 6.69,-23.32 c 0.18,-0.64 -0.08,-1 -0.78,-1 h -11.33 q -6.84,0 -8.87,7 l -5.2,18.39 q -2,7 4.83,7 h 4.57 q 7.78,0.04 10.09,-8.05 z" class="c9"/>
    <path d="m 663.39271,185.90834 h -4.57 c -0.63,0 -1,-0.11 -1.19,-0.34 -0.19,-0.23 -0.15,-0.62 0,-1.19 l 1.42,-4.95 a 2,2 0 0 1 2.08,-1.62 h 4.57 a 1.18,1.18 0 0 0 1.23,-0.95 l 2.45,-8.57 a 2.07,2.07 0 0 1 2.18,-1.62 h 6 c 1.08,0 1.46,0.55 1.15,1.62 l -2.45,8.57 c -0.19,0.64 0.07,0.95 0.77,0.95 h 8.85 c 1.15,0 1.56,0.54 1.25,1.62 l -1.41,4.91 a 2,2 0 0 1 -2.15,1.53 h -8.85 a 1.22,1.22 0 0 0 -1.32,1 l -7,24.46 q -2,7 5.15,7 h 3.71 c 1.15,0 1.56,0.54 1.25,1.62 l -1.48,4.89 a 2,2 0 0 1 -2.15,1.52 h -5.14 q -7,0 -9.95,-3.8 -2.95,-3.8 -0.91,-10.76 l 7.15,-24.94 c 0.22,-0.64 0,-0.95 -0.64,-0.95 z" class="c9"/>
    <path d="m 702.46271,226.33834 h -3.71 q -7.05,0 -9.78,-3.9 -2.73,-3.9 -0.74,-10.85 l 5.46,-19 a 20.38,20.38 0 0 1 7,-10.9 19,19 0 0 1 12,-3.86 h 21.34 c 1.14,0 1.56,0.54 1.25,1.62 l -13,45.32 a 2.06,2.06 0 0 1 -2.25,1.57 h -6 c -1.08,0 -1.47,-0.54 -1.16,-1.61 l 1,-3.43 h -0.39 q -3.68,5.04 -11.02,5.04 z m 14.64,-16.18 6.69,-23.32 c 0.18,-0.64 -0.08,-1 -0.78,-1 h -11.32 q -6.86,0 -8.88,7 l -5.24,18.28 q -2,7 4.83,7 h 4.57 q 7.82,0.15 10.13,-7.94 z" class="c9"/>
    <path d="m 734.44271,224.74834 18.26,-63.69 a 2,2 0 0 1 2.08,-1.62 h 6 c 1.08,0 1.46,0.54 1.15,1.62 l -6.17,21.51 h 0.38 q 3.86,-5.13 11.09,-5.14 h 4.19 q 7,0 9.84,3.86 2.84,3.86 0.81,10.8 l -5.6,19.52 a 20.38,20.38 0 0 1 -7,10.85 19.09,19.09 0 0 1 -12.07,3.9 h -21.8 c -1.09,-0.02 -1.47,-0.54 -1.16,-1.61 z m 12.13,-6.48 h 11.81 q 6.86,0 8.87,-7 l 5.35,-18.66 q 2,-7 -4.83,-7 h -5.05 q -7.8,0 -10.1,8 l -6.79,23.7 c -0.2,0.61 0.04,0.96 0.74,0.96 z" class="c9"/>
    <path d="m 791.61271,226.33834 h -6 c -1.08,0 -1.47,-0.54 -1.16,-1.61 l 18.26,-63.69 a 2,2 0 0 1 2.09,-1.62 h 6 c 1.08,0 1.47,0.54 1.16,1.62 l -18.26,63.69 a 2,2 0 0 1 -2.09,1.61 z" class="c9"/>
    <path d="m 840.26271,226.33834 h -20.57 q -7,0 -9.78,-3.9 -2.78,-3.9 -0.74,-10.85 l 5.46,-19 a 20.44,20.44 0 0 1 7,-10.9 19,19 0 0 1 12,-3.86 h 7.8 q 7,0 9.84,3.86 2.84,3.86 0.78,10.9 l -3.47,12.09 a 2.11,2.11 0 0 1 -2.2,1.71 h -25.52 a 1.23,1.23 0 0 0 -1.32,0.95 l -1.18,4.1 q -2,6.94 5,6.95 h 19.23 c 1.14,0 1.55,0.57 1.22,1.71 l -1.36,4.76 a 2,2 0 0 1 -2.19,1.48 z m -17.55,-26.46 h 17 a 1.18,1.18 0 0 0 1.23,-0.95 l 1.75,-6.09 q 1,-3.63 -0.11,-5.29 -1.11,-1.66 -4.75,-1.66 h -5.2 a 8.92,8.92 0 0 0 -5.71,1.66 10,10 0 0 0 -3.14,5.29 l -1.75,6.11 c -0.18,0.63 0.05,0.95 0.68,0.95 z" class="c9"/>
  </g>
</svg>
