<?xml version="1.0" encoding="UTF-8"?>
<svg width="127" height="127" version="1.1" viewBox="0 0 127 127" xmlns="http://www.w3.org/2000/svg">
 <defs>
  <style>.c2{fill:#4584b6;}.c3{fill:#ffde57;}.c4{fill:#45733e;}.c5{fill:#a2c1da;}.c6{fill:#2c649c;}.c7{fill:#a2a84a;}.c8{fill:#2c5735;}.c9{fill:#646464;}</style>
 </defs>
 <g transform="matrix(.28353 0 0 .28353 .19991 9.1614)">
  <path class="c2" d="m100 0c-2.5291 0.0038785-4.7502 1.6788-5.4492 4.1094-31.433 109.69-62.873 219.38-94.33 329.06-1.0369 3.622 1.6817 7.2293 5.4492 7.2305h175.66l14.48-50.48h-79.021c-3.7675-1e-3 -6.4861-3.6085-5.4492-7.2305 21.804-76.035 43.619-152.07 65.43-228.1 0.69594-2.4199 2.902-4.0922 5.4199-4.1094h158.72l12.4-43.25c1.0366-3.6221-1.6836-7.2297-5.4512-7.2305z"/>
  <path class="c3" d="m376.92 101c-17.686 61.599-35.344 123.21-53.01 184.81-0.69614 2.4326-2.919 4.1088-5.4492 4.1094h-46.211l-13.25 46.369c-0.68926 2.433-2.9107 4.1131-5.4394 4.1113h-72.23l-12.4 43.25c-1.0366 3.6222 1.6836 7.2297 5.4512 7.2305h185.81c2.5274 7.6e-4 4.7513-1.673 5.4512-4.1016 26.626-92.85 53.257-185.7 79.879-278.55 1.0369-3.622-1.6817-7.2293-5.4492-7.2305z"/>
  <path class="c4" d="m259 336.29 13.3-46.37h-76.49l-14.48 50.48h72.18a5.65 5.65 0 0 0 5.49-4.11z"/>
  <path class="c5" d="m376.92 101 12.4-43.26a5.67 5.67 0 0 0-5.45-7.23h-43l-14.44 50.49z"/>
  <path class="c6" d="m182.19 50.51c-2.5291 0.0039-4.7502 1.6788-5.4492 4.1094-21.793 76.024-43.58 152.05-65.381 228.07-1.0371 3.6228 1.6829 7.2306 5.4512 7.2305h79c17.66-61.621 35.349-123.23 53.029-184.85 0.7077-2.4061 2.912-4.0616 5.4199-4.0703h72.17l14.48-50.49z"/>
  <path class="c7" d="m326.43 100.97-14.469 50.479-39.711 138.47h46.211c2.5302-5.2e-4 4.7531-1.6768 5.4492-4.1094l38.529-134.36 14.48-50.479z"/>
  <path class="c8" d="m254.26 101c-2.5274-7.6e-4 -4.7494 1.671-5.4492 4.0996-17.67 61.606-35.338 123.21-53 184.82h76.439c18.054-62.975 36.118-125.95 54.18-188.92z"/>
 </g>
</svg>
