<?xml version="1.0" encoding="UTF-8"?><svg id="Layer_1" xmlns="http://www.w3.org/2000/svg" viewBox="0 0 600.28 600.28"><defs><style>.cls-1{fill:#54585a;}.cls-1,.cls-2,.cls-3{stroke-width:0px;}.cls-2{fill:#161616;}.cls-3{fill:#ffe600;}</style></defs><rect id="Fill-1" class="cls-3" width="600.28" height="600.28" rx="23.24" ry="23.24"/><path class="cls-2" d="m174.33,246.06v92.78h-21.47v-38.04h-42.15v38.04h-21.47v-92.78h21.47v36.58h42.15v-36.58h21.47Z"/><path class="cls-2" d="m259.81,321.34v17.5h-70.11v-13.92l35.79-33.8c8.22-7.82,9.67-12.59,9.67-17.1,0-7.29-5.04-11.53-14.84-11.53-7.95,0-14.71,3.05-19.22,9.28l-15.64-10.07c7.16-10.47,20.15-17.23,36.85-17.23,20.68,0,34.46,10.6,34.46,27.44,0,9.01-2.52,17.23-15.51,29.29l-21.34,20.15h39.89Z"/><path class="cls-2" d="m268.69,292.45c0-27.57,21.47-47.98,50.76-47.98s50.76,20.28,50.76,47.98-21.6,47.98-50.76,47.98-50.76-20.41-50.76-47.98Zm79.79,0c0-17.63-12.46-29.69-29.03-29.69s-29.03,12.06-29.03,29.69,12.46,29.69,29.03,29.69,29.03-12.06,29.03-29.69Z"/><path class="cls-1" d="m377.23,326.91c0-7.69,5.7-12.72,12.86-12.72s12.86,5.04,12.86,12.72-5.7,12.99-12.86,12.99-12.86-5.43-12.86-12.99Z"/><path class="cls-1" d="m481.4,298.15v40.69h-19.35v-8.88c-3.84,6.49-11.27,9.94-21.74,9.94-16.7,0-26.64-9.28-26.64-21.6s8.88-21.34,30.62-21.34h16.43c0-8.88-5.3-14.05-16.43-14.05-7.55,0-15.37,2.52-20.54,6.63l-7.42-14.45c7.82-5.57,19.35-8.61,30.75-8.61,21.74,0,34.33,10.07,34.33,31.68Zm-20.68,18.16v-7.29h-14.18c-9.67,0-12.72,3.58-12.72,8.35,0,5.17,4.37,8.61,11.66,8.61,6.89,0,12.86-3.18,15.24-9.67Z"/><path class="cls-1" d="m497.56,246.06c0-6.49,5.17-11.53,12.86-11.53s12.86,4.77,12.86,11.13c0,6.89-5.17,11.93-12.86,11.93s-12.86-5.04-12.86-11.53Zm2.52,21.47h20.68v71.31h-20.68v-71.31Z"/></svg>