<svg xmlns="http://www.w3.org/2000/svg" viewBox="0 0 445.74 390.88"><defs><style>.cls-1{fill:#558aaa;}.cls-2{fill:#4584b6;}.cls-3{fill:#ffde57;}.cls-4{fill:#45733e;}.cls-5{fill:#a2c1da;}.cls-6{fill:#2c649c;}.cls-7{fill:#a2a84a;}.cls-8{fill:#2c5735;}.cls-9{fill:#646464;}</style></defs><title>Asset 1</title><g id="Layer_2" data-name="Layer 2"><g id="Layer_5" data-name="Layer 5"><polygon class="cls-1" points="337.21 239.45 337.21 239.45 286.72 239.45 286.72 239.45 337.21 239.45"/><path class="cls-2" d="M182.19,50.48H340.91l12.4-43.25A5.67,5.67,0,0,0,347.86,0H100a5.68,5.68,0,0,0-5.45,4.11L52.33,151.45H149l27.77-96.86A5.68,5.68,0,0,1,182.19,50.48Z"/><path class="cls-2" d="M116.79,289.92a5.67,5.67,0,0,1-5.45-7.23l12.4-43.24H27.1L.22,333.17a5.67,5.67,0,0,0,5.45,7.23H181.33l14.48-50.48Z"/><path class="cls-3" d="M323.91,285.81a5.67,5.67,0,0,1-5.45,4.11H272.25L259,336.29a5.65,5.65,0,0,1-5.44,4.11H181.33l-12.4,43.25a5.67,5.67,0,0,0,5.45,7.23H360.19a5.67,5.67,0,0,0,5.45-4.1l42.24-147.33H337.21Z"/><path class="cls-4" d="M259,336.29l13.3-46.37H195.81L181.33,340.4h72.18A5.65,5.65,0,0,0,259,336.29Z"/><path class="cls-5" d="M376.92,101l12.4-43.26a5.67,5.67,0,0,0-5.45-7.23h-43L326.43,101Z"/><path class="cls-6" d="M254.26,101h72.17l14.48-50.49H182.19a5.68,5.68,0,0,0-5.45,4.11L149,151.45h86.54l13.3-46.38A5.67,5.67,0,0,1,254.26,101Z"/><polygon class="cls-7" points="311.96 151.45 362.44 151.45 376.92 100.97 326.43 100.97 311.96 151.45"/><path class="cls-8" d="M326.43,101H254.26a5.67,5.67,0,0,0-5.45,4.1l-13.3,46.38H312Z"/><path class="cls-7" d="M272.25,289.92h46.21a5.67,5.67,0,0,0,5.45-4.11l13.3-46.36H286.72Z"/><polygon class="cls-8" points="210.28 239.45 195.81 289.92 272.25 289.92 286.72 239.45 210.28 239.45"/><path class="cls-6" d="M210.28,239.45l-14.47,50.47h-79a5.67,5.67,0,0,1-5.45-7.23l12.4-43.24Z"/><path class="cls-3" d="M362.44,151.45,376.92,101h63.15a5.67,5.67,0,0,1,5.45,7.23l-12.4,43.25Z"/><path class="cls-9" d="M50.08,228H45.23q-6.85,0-9.41-3.85t-.54-10.9l5.46-19a20.9,20.9,0,0,1,6.8-10.95,18,18,0,0,1,11.61-3.81H64q7.32,0,8.07,5.05h.38l6.25-21.8a2,2,0,0,1,2.08-1.62h6.1c1.07,0,1.46.54,1.15,1.62L69.78,226.41A2,2,0,0,1,67.7,228H61.6c-1.08,0-1.46-.54-1.15-1.61l1-3.43h-.38Q57.41,228,50.08,228Zm14.54-16.18,4.64-16.18q2.33-8.1-5.48-8.09H58.73q-6.84,0-8.87,7l-5.24,18.28q-2,7,4.83,7h5Q62.3,219.93,64.62,211.84Z"/><path class="cls-9" d="M99.27,228H95.56q-7.05,0-9.78-3.9c-1.83-2.6-2.07-6.22-.75-10.85l5.46-19a20.5,20.5,0,0,1,7-10.9,19,19,0,0,1,12-3.86H130.8c1.15,0,1.56.54,1.25,1.62l-13,45.32a2.06,2.06,0,0,1-2.18,1.61h-6c-1.08,0-1.46-.54-1.15-1.61l1-3.43h-.38Q106.6,228,99.27,228Zm14.64-16.18,6.69-23.32c.18-.64-.08-1-.78-1H108.49q-6.85,0-8.87,7l-5.24,18.28q-2,7,4.83,7h4.57Q111.58,219.93,113.91,211.84Z"/><path class="cls-9" d="M145.78,187.57h-4.57c-.63,0-1-.11-1.19-.34s-.15-.62,0-1.19l1.42-4.95a2,2,0,0,1,2.08-1.62h4.57a1.18,1.18,0,0,0,1.23-.95l2.45-8.57a2.07,2.07,0,0,1,2.18-1.62h6c1.08,0,1.46.55,1.15,1.62l-2.45,8.57c-.19.64.07.95.77.95h8.85c1.15,0,1.56.54,1.25,1.62L168.11,186a2,2,0,0,1-2.15,1.53h-8.85a1.22,1.22,0,0,0-1.32,1l-7,24.46q-2,7,5.15,7h3.71c1.15,0,1.56.54,1.25,1.62l-1.42,4.95a2,2,0,0,1-2.15,1.52h-5.14q-7,0-9.95-3.8t-.91-10.76l7.15-24.94C146.64,187.88,146.41,187.57,145.78,187.57Z"/><path class="cls-9" d="M184.85,228h-3.71q-7,0-9.78-3.9t-.74-10.85l5.46-19a20.38,20.38,0,0,1,7-10.9,19,19,0,0,1,12-3.86h21.33c1.14,0,1.55.54,1.25,1.62l-13,45.32a2.06,2.06,0,0,1-2.18,1.61h-6c-1.08,0-1.47-.54-1.16-1.61l1-3.43h-.39Q192.19,228,184.85,228Zm14.64-16.18,6.69-23.32c.18-.64-.08-1-.78-1H194.07q-6.84,0-8.87,7L180,212.89q-2,7,4.83,7h4.57Q197.18,219.93,199.49,211.84Z"/><path class="cls-9" d="M231.36,187.57h-4.57c-.63,0-1-.11-1.19-.34s-.15-.62,0-1.19l1.42-4.95a2,2,0,0,1,2.08-1.62h4.57a1.18,1.18,0,0,0,1.23-.95l2.45-8.57a2.07,2.07,0,0,1,2.18-1.62h6c1.08,0,1.46.55,1.15,1.62l-2.45,8.57c-.19.64.07.95.77.95h8.85c1.15,0,1.56.54,1.25,1.62L253.69,186a2,2,0,0,1-2.15,1.53h-8.85a1.22,1.22,0,0,0-1.32,1l-7,24.46q-2,7,5.15,7h3.71c1.15,0,1.56.54,1.25,1.62L243,226.5a2,2,0,0,1-2.15,1.52h-5.14q-7,0-9.95-3.8t-.91-10.76L232,188.52C232.22,187.88,232,187.57,231.36,187.57Z"/><path class="cls-9" d="M270.43,228h-3.71q-7.05,0-9.78-3.9t-.74-10.85l5.46-19a20.38,20.38,0,0,1,7-10.9,19,19,0,0,1,12-3.86H302c1.14,0,1.56.54,1.25,1.62l-13,45.32A2.06,2.06,0,0,1,288,228h-6c-1.08,0-1.47-.54-1.16-1.61l1-3.43h-.39Q277.77,228,270.43,228Zm14.64-16.18,6.69-23.32c.18-.64-.08-1-.78-1H279.66q-6.86,0-8.88,7l-5.24,18.28q-2,7,4.83,7h4.57Q282.76,219.93,285.07,211.84Z"/><path class="cls-9" d="M302.41,226.41l18.26-63.69a2,2,0,0,1,2.08-1.62h6c1.08,0,1.46.54,1.15,1.62l-6.17,21.51h.38q3.86-5.13,11.09-5.14h4.19q7,0,9.84,3.86t.81,10.8l-5.6,19.52a20.38,20.38,0,0,1-7,10.85,19.09,19.09,0,0,1-12.07,3.9h-21.8C302.48,228,302.1,227.48,302.41,226.41Zm12.13-6.48h11.81q6.86,0,8.87-7l5.35-18.66q2-7-4.83-7h-5.05q-7.8,0-10.1,8l-6.79,23.7C313.6,219.58,313.84,219.93,314.54,219.93Z"/><path class="cls-9" d="M359.58,228h-6c-1.08,0-1.47-.54-1.16-1.61l18.26-63.69a2,2,0,0,1,2.09-1.62h6c1.08,0,1.47.54,1.16,1.62l-18.26,63.69A2,2,0,0,1,359.58,228Z"/><path class="cls-9" d="M408.23,228H387.66q-7,0-9.78-3.9t-.74-10.85l5.46-19a20.44,20.44,0,0,1,7-10.9,19,19,0,0,1,12-3.86h7.8q7,0,9.84,3.86t.78,10.9l-3.47,12.09a2.11,2.11,0,0,1-2.2,1.71H388.83a1.23,1.23,0,0,0-1.32.95l-1.18,4.1q-2,6.94,5,6.95h19.23c1.14,0,1.55.57,1.22,1.71l-1.36,4.76A2,2,0,0,1,408.23,228Zm-17.55-26.46h17a1.18,1.18,0,0,0,1.23-.95l1.75-6.09q1-3.63-.11-5.29t-4.75-1.66H400.6a8.92,8.92,0,0,0-5.71,1.66,10,10,0,0,0-3.14,5.29L390,200.61C389.82,201.24,390.05,201.56,390.68,201.56Z"/></g></g></svg>